<?xml version="1.0" standalone="no"?>
<!DOCTYPE svg PUBLIC "-//W3C//DTD SVG 20010904//EN"
 "http://www.w3.org/TR/2001/REC-SVG-20010904/DTD/svg10.dtd">
<svg version="1.0" xmlns="http://www.w3.org/2000/svg"
 width="212.000000pt" height="102.000000pt" viewBox="0 0 212.000000 102.000000"
 preserveAspectRatio="xMidYMid meet">

<g transform="translate(0.000000,102.000000) scale(0.100000,-0.100000)"
fill="#000000" stroke="none">
<path d="M2050 948 c0 -53 -10 -65 -57 -72 -72 -10 -129 -41 -200 -108 -62
-60 -233 -271 -233 -288 0 -20 129 -278 154 -307 78 -92 236 -97 300 -11 30
42 13 43 -27 3 -81 -81 -132 -38 -261 216 l-87 170 33 47 c65 91 180 199 248
231 36 17 75 31 86 31 l22 0 -25 -62 c-30 -73 -41 -138 -24 -138 6 0 11 8 11
18 0 10 18 70 40 133 40 115 48 159 30 159 -5 0 -10 -10 -10 -22z"/>
<path d="M1202 889 c-48 -24 -88 -71 -108 -126 -16 -46 -18 -83 -4 -83 6 0 10
8 10 19 0 32 30 104 53 129 39 42 91 62 162 62 74 0 155 -17 161 -34 7 -20
-143 -605 -168 -654 -87 -171 -367 -84 -368 116 0 25 -5 42 -11 42 -18 0 -4
-101 20 -148 43 -84 153 -140 252 -129 113 14 192 74 245 185 23 49 85 280
129 485 l17 77 62 1 61 1 -100 18 c-55 10 -120 26 -145 35 -25 9 -85 19 -135
22 -79 4 -95 2 -133 -18z"/>
</g>
</svg>
